<svg width="405" height="150" viewBox="0 0 405 150" fill="none" xmlns="http://www.w3.org/2000/svg">
<path d="M0 0H405V150H0V0Z" fill="#F44E1A"/>
<path d="M0 0H405V150H0V0Z" fill="#1D213C"/>
<path d="M164.14 48.287C170.683 48.287 175.383 52.6483 175.383 58.852C175.383 65.0932 170.683 69.417 164.14 69.417C157.56 69.417 152.897 65.0932 152.897 58.852C152.897 52.6483 157.56 48.287 164.14 48.287ZM164.14 64.6797C167.487 64.6797 169.329 63.1757 169.329 58.852C169.329 54.5658 167.487 53.0243 164.14 53.0243C160.756 53.0243 158.951 54.5658 158.951 58.852C158.951 63.1757 160.756 64.6797 164.14 64.6797Z" fill="white"/>
<path d="M195.775 48.7757V53.6259H189.157V68.9282H183.329V53.6259H176.711V48.7757H195.775Z" fill="white"/>
<path d="M218.265 68.9282H211.572L206.684 60.4311C206.044 60.6567 204.992 60.7695 204.352 60.7695V68.9282H198.524V48.7757H204.352V56.0321C206.195 56.0321 207.774 55.6186 208.94 54.3026C209.993 53.1371 210.82 51.1444 211.045 48.7757H217.212C216.31 53.0995 214.392 56.5961 211.797 58.6264L218.265 68.9282Z" fill="white"/>
<path d="M220.74 48.7757H226.568V51.4076C227.734 49.7157 229.764 48.287 232.697 48.287C238.676 48.287 243.301 52.5731 243.301 58.7016C243.301 64.8301 238.413 69.417 232.697 69.417C229.614 69.417 227.659 68.0635 226.568 66.2964V76.5982H220.74V48.7757ZM226.568 57.2729V60.4311C227.395 63.7021 228.824 64.6421 232.321 64.6797C235.404 64.6797 237.247 62.8374 237.247 58.7016C237.247 54.5658 235.668 53.0243 232.321 53.0243C229.05 53.0243 227.395 54.0019 226.568 57.2729Z" fill="white"/>
<path d="M266.778 48.7757H272.606V68.9282H266.778V48.7757ZM255.948 54.6786C261.363 54.6786 264.522 57.0097 264.522 61.7094C264.522 66.5596 261.288 68.9282 255.948 68.9282H246.811V48.7757H252.639V54.6786H255.948ZM256.174 64.3413C257.941 64.3413 258.543 63.8901 258.543 61.7094C258.543 59.5663 257.941 59.1152 256.174 59.1152H252.639V64.3413H256.174Z" fill="white"/>
<path d="M294.406 48.7757V53.6259H287.788V68.9282H281.96V53.6259H275.342V48.7757H294.406Z" fill="white"/>
<path d="M317.121 48.7757H322.949V68.9282H317.121V48.7757ZM306.292 54.6786C311.707 54.6786 314.865 57.0097 314.865 61.7094C314.865 66.5596 311.631 68.9282 306.292 68.9282H297.155V48.7757H302.983V54.6786H306.292ZM306.518 64.3413C308.285 64.3413 308.886 63.8901 308.886 61.7094C308.886 59.5663 308.285 59.1152 306.518 59.1152H302.983V64.3413H306.518Z" fill="white"/>
<path d="M339.748 39.7898H344.448C343.584 43.324 341.139 45.9183 337.003 45.9183C332.867 45.9183 330.423 43.324 329.558 39.7898H334.258C334.597 41.181 335.349 41.8577 337.003 41.8577C338.658 41.8577 339.41 41.181 339.748 39.7898ZM340.199 48.7757H346.93V68.9282H341.102V55.6186C340.989 56.0697 340.651 57.0097 340.237 57.8368L334.522 68.9282H327.302V48.7757H333.13V62.6118C333.318 62.0854 333.694 61.0327 334.221 60.0551L340.199 48.7757Z" fill="white"/>
<path d="M173.503 101.435H166.81L161.922 92.9376C161.282 93.1632 160.23 93.276 159.59 93.276V101.435H153.762V81.2823H159.59V88.5387C161.433 88.5387 163.012 88.1251 164.178 86.8091C165.231 85.6436 166.058 83.6509 166.283 81.2823H172.45C171.548 85.606 169.63 89.1026 167.035 91.1329L173.503 101.435Z" fill="white"/>
<path d="M195.869 96.6974H196.358V101.435H195.493C192.184 101.435 190.981 100.57 190.116 98.9909C189.214 100.72 186.431 101.924 183.16 101.924C179.024 101.924 175 99.8556 175 95.3439C175 90.9073 179.625 88.9898 183.949 88.9898C185.905 88.9898 187.334 89.441 188.462 90.005V88.5011C188.462 86.17 187.71 85.23 184.889 85.23C182.934 85.23 181.919 85.5308 181.43 86.9971H175.752C177.181 82.523 180.528 80.7935 184.852 80.7935C190.943 80.7935 194.29 83.6885 194.29 88.7266V95.0055C194.29 96.3214 194.891 96.6974 195.869 96.6974ZM188.462 95.7198V93.7648C187.446 93.0504 186.506 92.6368 184.137 92.6368C181.731 92.6368 180.979 93.3512 180.979 95.1183C180.979 96.7726 181.731 97.487 183.912 97.487C186.168 97.487 187.371 97.1862 188.462 95.7198Z" fill="white"/>
<path d="M216.972 81.2823H224.643V101.435H219.003V87.0347C218.74 88.0499 218.552 88.6514 218.176 89.6666L214.34 100.307H209.527L205.579 89.5914C205.241 88.6138 205.015 88.0499 204.752 87.0347V101.435H199.112V81.2823H206.895L211.934 94.6295L216.972 81.2823Z" fill="white"/>
<path d="M229.002 81.2823H248.104V101.435H242.275V86.1324H234.83V101.435H229.002V81.2823Z" fill="white"/>
<path d="M266.567 81.2823H272.47L267.356 102.074C266.116 107.225 264.348 109.556 258.896 109.556C254.873 109.556 251.639 107.338 251.639 103.653C251.639 103.54 251.639 103.277 251.677 102.976H257.505C257.467 103.315 257.467 103.427 257.467 103.766C257.467 104.706 258.106 105.044 259.31 105.044C261.265 105.044 261.679 103.202 262.092 101.209C258.52 100.833 255.963 98.4645 254.91 94.9303L250.849 81.2823H256.903L260.4 94.0655C260.927 95.9454 261.453 96.3214 263.07 96.5846L266.567 81.2823Z" fill="white"/>
<path d="M289.079 93.9903H294.907C293.704 99.1037 290.433 101.924 284.755 101.924C278.55 101.924 274.001 97.1862 274.001 91.3961C274.001 85.3052 278.25 80.7935 284.642 80.7935C290.245 80.7935 293.441 83.5757 294.757 88.5762H288.929C288.628 86.4708 287.424 85.5308 284.642 85.5308C281.709 85.5308 280.055 86.9219 280.055 91.3961C280.055 95.4567 281.822 97.1862 284.755 97.1862C287.575 97.1862 288.741 96.359 289.079 93.9903Z" fill="white"/>
<path d="M109.932 71.5405C109.932 84.8068 99.1767 95.5614 85.9091 95.5614C72.6414 95.5614 61.8859 84.8068 61.8859 71.5405C61.8859 58.2741 72.6414 47.5196 85.9091 47.5196C99.1767 47.5196 109.932 58.2741 109.932 71.5405Z" fill="white"/>
<path d="M109.932 71.5405C113.087 71.5405 116.211 72.1618 119.126 73.369C122.04 74.5761 124.689 76.3455 126.919 78.576C129.15 80.8066 130.92 83.4546 132.127 86.369C133.334 89.2833 133.956 92.4069 133.956 95.5614H109.932V71.5405Z" fill="white"/>
<path d="M133.956 47.5196C133.956 50.674 133.334 53.7976 132.127 56.712C130.92 59.6263 129.15 62.2744 126.919 64.5049C124.689 66.7355 122.04 68.5048 119.126 69.712C116.211 70.9191 113.087 71.5405 109.932 71.5405V47.5196H133.956Z" fill="white"/>
</svg>
