<svg width="60" height="56" viewBox="0 0 60 56" fill="none" xmlns="http://www.w3.org/2000/svg">
<path d="M59.9512 27.972C59.9512 12.53 46.7297 0 30.439 0C14.1482 0 0.926758 12.53 0.926758 27.972C0.926758 36.477 4.99944 44.142 11.3741 49.287C11.4331 49.343 11.4921 49.343 11.4921 49.399C12.0233 49.791 12.5546 50.183 13.1448 50.575C13.4399 50.743 13.676 50.9635 13.9712 51.1875C18.8503 54.3209 24.6062 55.997 30.498 56C36.3897 55.997 42.1457 54.3209 47.0248 51.1875C47.3199 51.0195 47.556 50.799 47.8512 50.6275C48.3824 50.239 48.9726 49.847 49.5038 49.455C49.5629 49.399 49.6219 49.399 49.6219 49.343C55.8785 44.1385 59.9512 36.477 59.9512 27.972ZM30.439 52.4755C24.8907 52.4755 19.8146 50.7955 15.6238 47.999C15.6829 47.551 15.8009 47.1065 15.919 46.6585C16.2718 45.4448 16.7876 44.279 17.4536 43.19C18.1029 42.126 18.8702 41.174 19.8146 40.334C20.6999 39.494 21.7624 38.7135 22.8248 38.0975C23.9463 37.4815 25.1268 37.0335 26.4253 36.6975C27.7344 36.3648 29.0838 36.1966 30.439 36.197C34.4628 36.1681 38.3391 37.6327 41.2404 40.278C42.598 41.566 43.6604 43.0768 44.4277 44.8105C44.8409 45.8185 45.136 46.8813 45.3131 47.999C40.957 50.9046 35.7638 52.4675 30.439 52.4755ZM21.4082 26.5755C20.8892 25.4454 20.6277 24.2241 20.6409 22.9915C20.6409 21.763 20.877 20.531 21.4082 19.411C21.9394 18.291 22.6477 17.2865 23.5331 16.4465C24.4185 15.6065 25.4809 14.938 26.6614 14.434C27.8419 13.93 29.1404 13.706 30.439 13.706C31.7965 13.706 33.036 13.93 34.2165 14.434C35.397 14.938 36.4594 15.61 37.3448 16.4465C38.2302 17.2865 38.9385 18.2945 39.4697 19.411C40.0009 20.531 40.237 21.763 40.237 22.9915C40.237 24.2795 40.0009 25.4555 39.4697 26.572C38.9599 27.677 38.2396 28.6832 37.3448 29.54C36.4414 30.3877 35.3809 31.0699 34.2165 31.5525C31.777 32.5016 29.0418 32.5016 26.6024 31.5525C25.438 31.0699 24.3775 30.3877 23.4741 29.54C22.5786 28.6953 21.8754 27.6886 21.4082 26.5755ZM48.7955 45.1465C48.7955 45.0345 48.7365 44.9785 48.7365 44.8665C48.1571 43.1141 47.3014 41.4549 46.1985 39.9455C45.0947 38.425 43.7394 37.0836 42.1848 35.973C40.9972 35.125 39.7097 34.4109 38.3482 33.845C38.9647 33.4537 39.5382 33.0046 40.0599 32.5045C40.9399 31.6803 41.7127 30.759 42.3619 29.7605C43.6736 27.7247 44.3491 25.3773 44.3097 22.9915C44.329 21.2257 43.9674 19.4748 43.2473 17.8465C42.5371 16.2773 41.5151 14.8525 40.237 13.65C38.9577 12.4637 37.4564 11.5141 35.8102 10.85C34.0914 10.167 32.2433 9.82513 30.3799 9.8455C28.5163 9.82624 26.6683 10.1693 24.9497 10.8535C23.2854 11.5095 21.7792 12.48 20.5229 13.706C19.2659 14.9134 18.2642 16.3378 17.5716 17.9025C16.8515 19.5308 16.4899 21.2817 16.5092 23.0475C16.5092 24.2795 16.6863 25.4543 17.0404 26.572C17.3946 27.748 17.8668 28.812 18.516 29.8165C19.1063 30.8245 19.9326 31.7205 20.818 32.5605C21.3492 33.0645 21.9394 33.5113 22.5887 33.901C21.2212 34.4786 19.9328 35.212 18.7521 36.085C17.2175 37.205 15.8599 38.5455 14.7385 40.0015C13.6254 41.5052 12.7689 43.1659 12.2004 44.9225C12.1414 45.0345 12.1414 45.1465 12.1414 45.2025C7.47847 40.726 4.58627 34.685 4.58627 27.972C4.58627 14.49 16.2141 3.4685 30.439 3.4685C44.6638 3.4685 56.2916 14.49 56.2916 27.972C56.2839 34.4119 53.5888 40.5868 48.7955 45.1465Z" fill="white"/>
</svg>
